<mxfile host="Electron" agent="Mozilla/5.0 (Windows NT 10.0; Win64; x64) AppleWebKit/537.36 (KHTML, like Gecko) draw.io/26.1.1 Chrome/132.0.6834.210 Electron/34.3.3 Safari/537.36" version="26.1.1">
  <diagram name="Page-1" id="laT-A2IUxBtBWtP4adSA">
    <mxGraphModel dx="780" dy="1596" grid="1" gridSize="10" guides="1" tooltips="1" connect="1" arrows="1" fold="1" page="1" pageScale="1" pageWidth="850" pageHeight="1100" math="0" shadow="0">
      <root>
        <mxCell id="0" />
        <mxCell id="1" parent="0" />
        <mxCell id="BYhF30sdY_Br8kiZ-cfB-16" value="" style="rounded=0;whiteSpace=wrap;html=1;" vertex="1" parent="1">
          <mxGeometry x="140" y="-330" width="600" height="250" as="geometry" />
        </mxCell>
        <mxCell id="BYhF30sdY_Br8kiZ-cfB-17" value="" style="shape=cylinder3;whiteSpace=wrap;html=1;boundedLbl=1;backgroundOutline=1;size=15;" vertex="1" parent="1">
          <mxGeometry x="600" y="-260" width="110" height="170" as="geometry" />
        </mxCell>
        <mxCell id="BYhF30sdY_Br8kiZ-cfB-18" value=".py" style="shape=note;whiteSpace=wrap;html=1;backgroundOutline=1;darkOpacity=0.05;" vertex="1" parent="1">
          <mxGeometry x="210" y="-270" width="80" height="100" as="geometry" />
        </mxCell>
        <mxCell id="BYhF30sdY_Br8kiZ-cfB-24" value="" style="edgeStyle=elbowEdgeStyle;elbow=horizontal;endArrow=classic;html=1;curved=0;rounded=0;endSize=8;startSize=8;" edge="1" parent="1" target="BYhF30sdY_Br8kiZ-cfB-17">
          <mxGeometry width="50" height="50" relative="1" as="geometry">
            <mxPoint x="290" y="-210" as="sourcePoint" />
            <mxPoint x="400" y="-250" as="targetPoint" />
            <Array as="points">
              <mxPoint x="330" y="-280" />
            </Array>
          </mxGeometry>
        </mxCell>
      </root>
    </mxGraphModel>
  </diagram>
</mxfile>
